<svg width="270" height="304" viewBox="0 0 270 304" fill="none" xmlns="http://www.w3.org/2000/svg">
<path d="M189.799 5L264.997 71.7373V343.555H4V5H189.799Z" fill="white" stroke="#B4A4CA" stroke-width="8"/>
<g filter="url(#filter0_d_10592_49243)">
<path d="M268.999 72.2521H188.232C187.68 72.2521 187.232 71.8044 187.232 71.2521V1L268.999 72.2521Z" fill="#B4A4CA"/>
<path d="M258.32 68.252H191.232V9.79102L258.32 68.252Z" stroke="#B4A4CA" stroke-width="8"/>
</g>
<path d="M53 181H214.163" stroke="#B4A4CA" stroke-width="5" stroke-linecap="round"/>
<path d="M55.6953 213.609H216.858" stroke="#B4A4CA" stroke-width="5" stroke-linecap="round"/>
<path d="M54.5117 244.633H215.674" stroke="#B4A4CA" stroke-width="5" stroke-linecap="round"/>
<rect x="46.5312" y="105.93" width="174.753" height="39.5214" rx="4.5" fill="#6A37EF" fill-opacity="0.13" stroke="#8160B0" stroke-width="3" stroke-dasharray="8 8"/>
<path d="M73.0802 132L77.2002 118H79.5602L75.3202 132H73.0802ZM64.6002 132L60.4202 118H62.7602L66.8602 132H64.6002ZM64.9002 132L68.8402 118H70.9802L67.0602 132H64.9002ZM72.8602 132L69.0002 118H71.1402L75.1202 132H72.8602ZM80.9924 132V118H83.2324V132H80.9924ZM87.7724 132V126.88H90.0124V132H87.7724ZM87.7724 126.88C87.7724 126.08 87.6791 125.467 87.4924 125.04C87.3058 124.6 87.0458 124.293 86.7124 124.12C86.3924 123.947 86.0191 123.86 85.5924 123.86C84.8324 123.847 84.2458 124.093 83.8324 124.6C83.4324 125.107 83.2324 125.833 83.2324 126.78H82.3724C82.3724 125.727 82.5258 124.827 82.8324 124.08C83.1524 123.32 83.5991 122.747 84.1724 122.36C84.7458 121.96 85.4258 121.76 86.2124 121.76C86.9991 121.76 87.6791 121.92 88.2524 122.24C88.8258 122.56 89.2591 123.06 89.5524 123.74C89.8591 124.407 90.0124 125.28 90.0124 126.36V126.88H87.7724ZM98.381 132L98.281 130.12V126.86C98.281 126.18 98.2077 125.613 98.061 125.16C97.9277 124.693 97.701 124.34 97.381 124.1C97.0743 123.847 96.661 123.72 96.141 123.72C95.661 123.72 95.241 123.82 94.881 124.02C94.521 124.22 94.2143 124.533 93.961 124.96L92.001 124.24C92.2143 123.8 92.4943 123.393 92.841 123.02C93.201 122.633 93.6477 122.327 94.181 122.1C94.7277 121.873 95.381 121.76 96.141 121.76C97.1143 121.76 97.9277 121.953 98.581 122.34C99.2343 122.713 99.7143 123.253 100.021 123.96C100.341 124.667 100.501 125.52 100.501 126.52L100.441 132H98.381ZM95.501 132.24C94.301 132.24 93.3677 131.973 92.701 131.44C92.0477 130.907 91.721 130.153 91.721 129.18C91.721 128.14 92.0677 127.347 92.761 126.8C93.4677 126.253 94.4477 125.98 95.701 125.98H98.381V127.7H96.421C95.5277 127.7 94.901 127.827 94.541 128.08C94.181 128.32 94.001 128.667 94.001 129.12C94.001 129.507 94.1543 129.813 94.461 130.04C94.781 130.253 95.221 130.36 95.781 130.36C96.2877 130.36 96.7277 130.247 97.101 130.02C97.4743 129.793 97.761 129.493 97.961 129.12C98.1743 128.747 98.281 128.327 98.281 127.86H98.941C98.941 129.22 98.6677 130.293 98.121 131.08C97.5743 131.853 96.701 132.24 95.501 132.24ZM106.749 132.24C105.696 132.24 104.889 131.98 104.329 131.46C103.783 130.927 103.509 130.167 103.509 129.18V118.88H105.729V128.76C105.729 129.227 105.836 129.58 106.049 129.82C106.276 130.06 106.603 130.18 107.029 130.18C107.163 130.18 107.309 130.153 107.469 130.1C107.629 130.047 107.809 129.947 108.009 129.8L108.829 131.5C108.483 131.74 108.136 131.92 107.789 132.04C107.443 132.173 107.096 132.24 106.749 132.24ZM101.849 123.92V122H108.429V123.92H101.849ZM115.585 132V122H117.805V132H115.585ZM116.705 120.1C116.345 120.1 116.032 119.973 115.765 119.72C115.512 119.453 115.385 119.14 115.385 118.78C115.385 118.42 115.512 118.113 115.765 117.86C116.032 117.607 116.345 117.48 116.705 117.48C117.065 117.48 117.372 117.607 117.625 117.86C117.892 118.113 118.025 118.42 118.025 118.78C118.025 119.14 117.892 119.453 117.625 119.72C117.372 119.973 117.065 120.1 116.705 120.1ZM124.085 132.24C123.418 132.24 122.805 132.14 122.245 131.94C121.685 131.74 121.205 131.46 120.805 131.1C120.405 130.727 120.098 130.293 119.885 129.8L121.825 128.94C122.025 129.313 122.318 129.627 122.705 129.88C123.105 130.133 123.545 130.26 124.025 130.26C124.545 130.26 124.958 130.173 125.265 130C125.585 129.813 125.745 129.56 125.745 129.24C125.745 128.933 125.625 128.7 125.385 128.54C125.145 128.367 124.805 128.227 124.365 128.12L123.425 127.86C122.478 127.62 121.738 127.24 121.205 126.72C120.672 126.187 120.405 125.58 120.405 124.9C120.405 123.9 120.725 123.127 121.365 122.58C122.018 122.033 122.952 121.76 124.165 121.76C124.778 121.76 125.338 121.853 125.845 122.04C126.365 122.213 126.812 122.467 127.185 122.8C127.558 123.12 127.818 123.5 127.965 123.94L126.105 124.78C125.972 124.447 125.718 124.193 125.345 124.02C124.972 123.833 124.558 123.74 124.105 123.74C123.652 123.74 123.298 123.84 123.045 124.04C122.792 124.227 122.665 124.493 122.665 124.84C122.665 125.04 122.778 125.227 123.005 125.4C123.232 125.56 123.558 125.693 123.985 125.8L125.165 126.08C125.818 126.24 126.352 126.493 126.765 126.84C127.178 127.173 127.485 127.553 127.685 127.98C127.885 128.393 127.985 128.813 127.985 129.24C127.985 129.84 127.812 130.367 127.465 130.82C127.132 131.273 126.672 131.627 126.085 131.88C125.498 132.12 124.832 132.24 124.085 132.24ZM138.886 136.26C138.179 136.26 137.539 136.2 136.966 136.08C136.406 135.96 135.932 135.82 135.546 135.66C135.159 135.5 134.859 135.347 134.646 135.2L135.506 133.4C135.692 133.493 135.939 133.607 136.246 133.74C136.566 133.887 136.939 134.013 137.366 134.12C137.792 134.227 138.272 134.28 138.806 134.28C139.379 134.28 139.892 134.16 140.346 133.92C140.799 133.693 141.152 133.34 141.406 132.86C141.659 132.38 141.786 131.767 141.786 131.02V122H144.026V130.96C144.026 132.093 143.812 133.053 143.386 133.84C142.959 134.64 142.359 135.24 141.586 135.64C140.812 136.053 139.912 136.26 138.886 136.26ZM138.546 131.8C137.639 131.8 136.846 131.593 136.166 131.18C135.499 130.767 134.972 130.193 134.586 129.46C134.212 128.713 134.026 127.853 134.026 126.88C134.026 125.84 134.212 124.94 134.586 124.18C134.972 123.42 135.499 122.827 136.166 122.4C136.846 121.973 137.639 121.76 138.546 121.76C139.359 121.76 140.066 121.973 140.666 122.4C141.279 122.827 141.752 123.427 142.086 124.2C142.419 124.96 142.586 125.86 142.586 126.9C142.586 127.887 142.419 128.747 142.086 129.48C141.752 130.213 141.279 130.787 140.666 131.2C140.066 131.6 139.359 131.8 138.546 131.8ZM139.166 129.9C139.672 129.9 140.112 129.767 140.486 129.5C140.872 129.233 141.172 128.873 141.386 128.42C141.599 127.953 141.706 127.42 141.706 126.82C141.706 126.207 141.599 125.673 141.386 125.22C141.172 124.753 140.872 124.393 140.486 124.14C140.099 123.873 139.652 123.74 139.146 123.74C138.612 123.74 138.139 123.873 137.726 124.14C137.326 124.393 137.006 124.753 136.766 125.22C136.539 125.673 136.426 126.207 136.426 126.82C136.426 127.42 136.539 127.953 136.766 128.42C137.006 128.873 137.332 129.233 137.746 129.5C138.159 129.767 138.632 129.9 139.166 129.9ZM147.98 126.68C147.98 125.6 148.186 124.713 148.6 124.02C149.013 123.327 149.546 122.813 150.2 122.48C150.866 122.133 151.56 121.96 152.28 121.96V124.1C151.666 124.1 151.086 124.187 150.54 124.36C150.006 124.52 149.573 124.787 149.24 125.16C148.906 125.533 148.74 126.027 148.74 126.64L147.98 126.68ZM146.5 132V122H148.74V132H146.5ZM159.865 132L159.765 130.12V126.86C159.765 126.18 159.692 125.613 159.545 125.16C159.412 124.693 159.185 124.34 158.865 124.1C158.559 123.847 158.145 123.72 157.625 123.72C157.145 123.72 156.725 123.82 156.365 124.02C156.005 124.22 155.699 124.533 155.445 124.96L153.485 124.24C153.699 123.8 153.979 123.393 154.325 123.02C154.685 122.633 155.132 122.327 155.665 122.1C156.212 121.873 156.865 121.76 157.625 121.76C158.599 121.76 159.412 121.953 160.065 122.34C160.719 122.713 161.199 123.253 161.505 123.96C161.825 124.667 161.985 125.52 161.985 126.52L161.925 132H159.865ZM156.985 132.24C155.785 132.24 154.852 131.973 154.185 131.44C153.532 130.907 153.205 130.153 153.205 129.18C153.205 128.14 153.552 127.347 154.245 126.8C154.952 126.253 155.932 125.98 157.185 125.98H159.865V127.7H157.905C157.012 127.7 156.385 127.827 156.025 128.08C155.665 128.32 155.485 128.667 155.485 129.12C155.485 129.507 155.639 129.813 155.945 130.04C156.265 130.253 156.705 130.36 157.265 130.36C157.772 130.36 158.212 130.247 158.585 130.02C158.959 129.793 159.245 129.493 159.445 129.12C159.659 128.747 159.765 128.327 159.765 127.86H160.425C160.425 129.22 160.152 130.293 159.605 131.08C159.059 131.853 158.185 132.24 156.985 132.24ZM167.239 132L171.139 122H173.459L169.339 132H167.239ZM167.079 132L162.939 122H165.239L169.159 132H167.079ZM174.999 132V122H177.219V132H174.999ZM176.119 120.1C175.759 120.1 175.446 119.973 175.179 119.72C174.926 119.453 174.799 119.14 174.799 118.78C174.799 118.42 174.926 118.113 175.179 117.86C175.446 117.607 175.759 117.48 176.119 117.48C176.479 117.48 176.786 117.607 177.039 117.86C177.306 118.113 177.439 118.42 177.439 118.78C177.439 119.14 177.306 119.453 177.039 119.72C176.786 119.973 176.479 120.1 176.119 120.1ZM183.839 132.24C182.786 132.24 181.979 131.98 181.419 131.46C180.872 130.927 180.599 130.167 180.599 129.18V118.88H182.819V128.76C182.819 129.227 182.926 129.58 183.139 129.82C183.366 130.06 183.692 130.18 184.119 130.18C184.252 130.18 184.399 130.153 184.559 130.1C184.719 130.047 184.899 129.947 185.099 129.8L185.919 131.5C185.572 131.74 185.226 131.92 184.879 132.04C184.532 132.173 184.186 132.24 183.839 132.24ZM178.939 123.92V122H185.519V123.92H178.939ZM189.291 136.24C188.971 136.24 188.611 136.18 188.211 136.06C187.824 135.94 187.451 135.787 187.091 135.6L187.931 133.78C188.184 133.9 188.417 133.993 188.631 134.06C188.844 134.14 189.017 134.18 189.151 134.18C189.471 134.18 189.737 134.093 189.951 133.92C190.177 133.76 190.357 133.52 190.491 133.2L191.671 130.44L195.051 122H197.491L192.851 133.06C192.571 133.7 192.284 134.26 191.991 134.74C191.711 135.22 191.357 135.587 190.931 135.84C190.504 136.107 189.957 136.24 189.291 136.24ZM191.071 132L186.591 122H189.031L192.511 130.42L193.231 132H191.071ZM200.944 128.08L200.884 124.54L202.184 124.46C202.944 124.433 203.571 124.22 204.064 123.82C204.557 123.407 204.804 122.827 204.804 122.08C204.804 121.413 204.571 120.867 204.104 120.44C203.651 120.013 203.057 119.8 202.324 119.8C201.804 119.8 201.351 119.927 200.964 120.18C200.577 120.433 200.311 120.747 200.164 121.12L198.104 120.52C198.371 119.693 198.871 119.027 199.604 118.52C200.351 118.013 201.257 117.76 202.324 117.76C203.231 117.76 204.031 117.947 204.724 118.32C205.431 118.68 205.984 119.187 206.384 119.84C206.784 120.48 206.984 121.227 206.984 122.08C206.984 122.8 206.824 123.447 206.504 124.02C206.184 124.593 205.731 125.053 205.144 125.4C204.571 125.747 203.904 125.96 203.144 126.04L203.104 128.08H200.944ZM202.024 132.28C201.624 132.28 201.284 132.147 201.004 131.88C200.737 131.6 200.604 131.267 200.604 130.88C200.604 130.48 200.737 130.147 201.004 129.88C201.284 129.6 201.624 129.46 202.024 129.46C202.411 129.46 202.737 129.6 203.004 129.88C203.284 130.147 203.424 130.48 203.424 130.88C203.424 131.267 203.284 131.6 203.004 131.88C202.737 132.147 202.411 132.28 202.024 132.28Z" fill="#3C227E"/>
<path d="M264.33 188.843L267.705 185.121C268.002 184.794 268.231 184.414 268.376 184.001C268.522 183.588 268.582 183.152 268.553 182.716C268.524 182.281 268.407 181.856 268.208 181.464C268.009 181.073 267.733 180.724 267.395 180.436L250.286 165.846L264.19 159.659L264.281 159.617C265.071 159.229 265.724 158.624 266.162 157.878C266.599 157.132 266.8 156.277 266.74 155.421L266.726 155.206C266.628 154.316 266.251 153.476 265.645 152.8C265.039 152.125 264.233 151.646 263.337 151.429L216.891 139.856C216.078 139.653 215.223 139.672 214.421 139.912C213.619 140.151 212.901 140.601 212.346 141.213C211.792 141.824 211.423 142.572 211.281 143.374C211.139 144.177 211.228 145.001 211.54 145.757L229.315 188.951C229.662 189.776 230.258 190.48 231.024 190.971C231.791 191.462 232.693 191.716 233.611 191.701C234.53 191.686 235.422 191.403 236.172 190.887C236.921 190.371 237.492 189.648 237.81 188.812L237.841 188.719L242.402 174.554L259.507 189.144C260.188 189.724 261.078 190.018 261.983 189.962C262.887 189.906 263.732 189.503 264.33 188.843Z" fill="#8160B0"/>
<defs>
<filter id="filter0_d_10592_49243" x="184.232" y="0" width="85.7656" height="75.25" filterUnits="userSpaceOnUse" color-interpolation-filters="sRGB">
<feFlood flood-opacity="0" result="BackgroundImageFix"/>
<feColorMatrix in="SourceAlpha" type="matrix" values="0 0 0 0 0 0 0 0 0 0 0 0 0 0 0 0 0 0 127 0" result="hardAlpha"/>
<feOffset dx="-1" dy="1"/>
<feGaussianBlur stdDeviation="1"/>
<feComposite in2="hardAlpha" operator="out"/>
<feColorMatrix type="matrix" values="0 0 0 0 0 0 0 0 0 0 0 0 0 0 0 0 0 0 0.2 0"/>
<feBlend mode="normal" in2="BackgroundImageFix" result="effect1_dropShadow_10592_49243"/>
<feBlend mode="normal" in="SourceGraphic" in2="effect1_dropShadow_10592_49243" result="shape"/>
</filter>
</defs>
</svg>
