<svg width="79" height="73" viewBox="0 0 79 73" fill="none" xmlns="http://www.w3.org/2000/svg">
<path d="M77.2071 19.0307L28.5131 71.1011C27.3753 72.317 25.8326 73 24.224 73C22.6154 73 21.0726 72.317 19.9348 71.1011L-7.22609 41.9027C-8.362 40.6862 -9 39.0373 -9 37.3182C-9 35.599 -8.362 33.9502 -7.22609 32.7336L0.358634 24.623C1.49582 23.412 3.03534 22.7321 4.64021 22.7321C6.24509 22.7321 7.7846 23.412 8.92179 24.623L24.3757 40.6496L61.0706 1.89287C62.2079 0.68067 63.7482 0 65.354 0C66.9598 0 68.5002 0.68067 69.6375 1.89287L77.2033 9.81698C77.7722 10.4199 78.2239 11.1373 78.5323 11.9279C78.8407 12.7184 78.9996 13.5664 79 14.423C79.0004 15.2795 78.8421 16.1277 78.5344 16.9185C78.2266 17.7094 77.7755 18.4272 77.2071 19.0307Z" fill="#E2EFF8"/>
</svg>
