<svg width="52" height="64" viewBox="0 0 52 64" fill="none" xmlns="http://www.w3.org/2000/svg">
<path d="M9 5C9 2.51472 6.98528 0.5 4.5 0.5C2.01472 0.5 1.08635e-07 2.51472 0 5L9 5ZM4.5 5L0 5L-1.83588e-06 47L4.5 47L9 47L9 5L4.5 5Z" fill="#E4D8C4"/>
<path d="M40 47.5C42.4853 47.5 44.5 45.4853 44.5 43C44.5 40.5147 42.4853 38.5 40 38.5V47.5ZM40 43V38.5L-9.53674e-07 38.5V43V47.5L40 47.5V43Z" fill="#E4D8C4"/>
<path d="M31.5566 28L47.113 43.5563L31.5566 59.1127" stroke="#E4D8C4" stroke-width="9" stroke-linecap="round" stroke-linejoin="round"/>
</svg>
